# xmcd
#
# Track frame offsets:
#	150
#	10725
#	27864
#	47414
#	69723
#	93884
#	117667
#	146446
#	161866
#	177200
#	192663
#	207452
#	225525
#
# Disc length: 3255 seconds
#
# Revision: 1
# Processed by: cddbd v1.5.2PL0 Copyright (c) Steve Scherf et al.
# Submitted via: jack 3.1.1
#
DISCID=b30cb50d
DTITLE=XAVIER NAIDOO - Alles Kann Besser Werden -2oo9- ~DunkHell~
DYEAR=2009
DGENRE=
TTITLE0=Intro: Du Mußt Es Nicht Tun
TTITLE1=Das War Noch Nicht Alles
TTITLE2=SöldnerLied (Drogen and Gold)
TTITLE3=Sie Verdienen Einen Besonderen Schutz
TTITLE4=Schiff Ahoi
TTITLE5=Holt Die Seeleute Heim
TTITLE6=Raus Aus Dem Reichstag
TTITLE7=Verschieden
TTITLE8=Goldwaage-Goldwagen
TTITLE9=Aufklärungsarbeit
TTITLE10=Ruth Maude
TTITLE11=Seltsamer Junge
TTITLE12=Long and Winding Road
EXTD=
EXTT0=
EXTT1=
EXTT2=
EXTT3=
EXTT4=
EXTT5=
EXTT6=
EXTT7=
EXTT8=
EXTT9=
EXTT10=
EXTT11=
EXTT12=
PLAYORDER=
